<?xml version="1.0"?>
<svg xmlns="http://www.w3.org/2000/svg" xmlns:xlink="http://www.w3.org/1999/xlink" xmlns:svgjs="http://svgjs.com/svgjs" version="1.1" width="512" height="512" x="0" y="0" viewBox="0 0 439 439.92561" style="enable-background:new 0 0 512 512" xml:space="preserve" class=""><g><path xmlns="http://www.w3.org/2000/svg" d="m140.515625 328.851562c50.386719 36.988282 119.574219 34.566407 167.257813-5.851562 47.679687-40.417969 61.398437-108.277344 33.160156-164.042969-28.238282-55.765625-91.054688-84.871093-151.855469-70.355469-60.800781 14.511719-103.699219 68.851563-103.703125 131.359376-.113281 43.03125 20.386719 83.511718 55.140625 108.890624zm291.867187-60.53125-22.636718 58.652344-34.980469-1.03125c-11.121094 16.671875-25.046875 31.292969-41.160156 43.210938l2.570312 34.988281-57.621093 25.199219-24.171876-25.199219c-19.691406 3.601563-39.824218 4.121094-59.679687 1.539063l-22.636719 26.242187-58.640625-22.640625 1.027344-34.980469c-16.675781-11.121093-31.296875-25.046875-43.21875-41.160156l-34.980469 2.570313-25.210937-57.621094 25.203125-24.167969c-3.601563-19.695313-4.121094-39.828125-1.542969-59.679687l-26.238281-22.640626 22.640625-58.652343 34.980469 1.03125c11.117187-16.671875 25.046874-31.292969 41.160156-43.210938l-2.570313-34.988281 57.617188-25.199219 24.171875 25.199219c19.695312-3.601562 39.832031-4.121094 59.691406-1.539062l22.628906-26.242188 58.648438 22.640625-1.027344 34.980469c16.675781 11.121094 31.296875 25.046875 43.21875 41.160156l34.980469-2.570312 25.210937 57.621093-25.210937 24.167969c3.597656 19.695312 4.117187 39.828125 1.539062 59.679688zm0 0" fill="#2ca1ff" data-original="#00efd1" style="" class=""/><path xmlns="http://www.w3.org/2000/svg" d="m220.425781 84.910156c58.339844.007813 110.082031 37.472656 128.296875 92.898438 18.214844 55.421875-1.214844 116.277344-48.179687 150.890625l-.207031-.289063v-53.910156c-.003907-21.269531-17.238282-38.515625-38.511719-38.527344-9.679688 13.171875-25.050781 20.953125-41.398438 20.953125-16.347656 0-31.722656-7.78125-41.402343-20.953125-21.269532.011719-38.507813 17.257813-38.507813 38.527344v54.351562c-47.070313-34.550781-66.605469-95.4375-48.429687-150.921874 18.175781-55.488282 69.949218-93.011719 128.339843-93.019532zm42.808594 90.960938c0-23.644532-19.167969-42.808594-42.808594-42.808594-23.644531 0-42.8125 19.164062-42.8125 42.808594 0 23.644531 19.167969 42.808594 42.8125 42.808594 23.640625 0 42.804688-19.167969 42.808594-42.808594zm0 0" fill="#ffffff" data-original="#00acea" style="" class=""/><path xmlns="http://www.w3.org/2000/svg" d="m300.335938 328.410156.207031.289063c-47.574219 35.027343-112.386719 35.085937-160.027344.152343v-54.351562c0-21.269531 17.238281-38.515625 38.507813-38.527344 9.679687 13.171875 25.054687 20.953125 41.402343 20.953125 16.347657 0 31.71875-7.78125 41.398438-20.953125 21.273437.011719 38.507812 17.257813 38.511719 38.527344zm0 0" fill="#2ca1ff" data-original="#fedb41" style="" class=""/><path xmlns="http://www.w3.org/2000/svg" d="m263.234375 175.871094c0 23.644531-19.167969 42.808594-42.808594 42.808594-23.644531 0-42.8125-19.164063-42.8125-42.808594 0-23.644532 19.167969-42.808594 42.8125-42.808594 23.640625 0 42.808594 19.164062 42.808594 42.808594zm0 0" fill="#2ca1ff" data-original="#fedb41" style="" class=""/><g xmlns="http://www.w3.org/2000/svg" fill="#083863"><path d="m220.425781 76.910156c-78.878906 0-143.050781 64.171875-143.050781 143.050782-.035156 45.558593 21.660156 88.398437 58.398438 115.335937 50.464843 37.011719 119.125 36.945313 169.523437-.160156 36.609375-26.949219 58.210937-69.714844 58.175781-115.175781 0-78.878907-64.171875-143.050782-143.046875-143.050782zm72 247.800782c-43.398437 29.734374-100.605469 29.730468-144-.007813v-50.203125c.039063-15.429688 11.558594-28.421875 26.871094-30.304688 11.316406 13.128907 27.792969 20.679688 45.125 20.679688s33.804687-7.550781 45.121094-20.679688c15.316406 1.882813 26.835937 14.875 26.882812 30.304688zm16-13.050782v-37.160156c-.070312-25.699219-20.902343-46.503906-46.601562-46.539062-2.546875 0-4.9375 1.214843-6.445313 3.265624-8.171875 11.128907-21.148437 17.699219-34.953125 17.699219-13.804687 0-26.785156-6.570312-34.957031-17.699219-1.503906-2.050781-3.898438-3.265624-6.445312-3.265624-25.699219.035156-46.53125 20.839843-46.597657 46.539062v37.152344c-25.019531-23.933594-39.148437-57.066406-39.097656-91.691406 0-70.054688 57.019531-127.050782 127.074219-127.050782 70.054687 0 127.105468 56.996094 127.105468 127.050782.058594 34.625-14.066406 67.761718-39.082031 91.699218zm0 0" fill="#2ca1ff" data-original="#083863" style="" class=""/><path d="m414.589844 242.402344c1.933594-17.835938 1.46875-35.851563-1.382813-53.566406l22.144531-21.230469c2.421876-2.320313 3.136719-5.90625 1.792969-8.980469l-25.210937-57.621094c-1.359375-3.109375-4.53125-5.019531-7.914063-4.773437l-30.648437 2.253906c-11.035156-14.195313-24.125-26.664063-38.839844-36.996094l.898438-30.613281c.101562-3.390625-1.949219-6.476562-5.113282-7.699219l-58.652344-22.640625c-3.152343-1.214844-6.730468-.320312-8.9375 2.238282l-19.851562 23.019531c-17.839844-1.929688-35.859375-1.464844-53.578125 1.386719l-21.226563-22.136719c-2.324218-2.421875-5.910156-3.136719-8.980468-1.792969l-57.621094 25.203125c-3.109375 1.359375-5.023438 4.53125-4.773438 7.914063l2.253907 30.65625c-14.195313 11.035156-26.664063 24.125-36.996094 38.835937l-30.613281-.898437c-3.394532-.109376-6.488282 1.941406-7.699219 5.113281l-22.640625 58.652343c-1.21875 3.152344-.320312 6.730469 2.238281 8.9375l23.019531 19.859376c-1.933593 17.839843-1.46875 35.855468 1.382813 53.570312l-22.132813 21.222656c-2.421874 2.320313-3.136718 5.90625-1.792968 8.980469l25.210937 57.621094c1.355469 3.109375 4.53125 5.023437 7.914063 4.773437l30.648437-2.253906c11.035157 14.195312 24.125 26.664062 38.839844 37l-.898437 30.609375c-.101563 3.394531 1.949218 6.480469 5.113281 7.703125l58.640625 22.640625c3.152344 1.214844 6.730468.320313 8.9375-2.238281l19.863281-23.019532c17.835937 1.933594 35.851563 1.46875 53.566406-1.382812l21.230469 22.132812c2.320312 2.421876 5.90625 3.136719 8.980469 1.792969l57.617187-25.199219c3.109375-1.359374 5.023438-4.535156 4.773438-7.917968l-2.25-30.65625c14.191406-11.03125 26.660156-24.121094 36.992187-38.832032l30.613281.898438c3.390626.097656 6.476563-1.949219 7.703126-5.113281l22.636718-58.652344c1.21875-3.152344.324219-6.730469-2.234375-8.9375zm-10.269532 76.402344-29.320312-.867188c-2.757812-.074219-5.359375 1.269531-6.890625 3.558594-10.597656 15.910156-23.882813 29.855468-39.261719 41.214844-2.207031 1.632812-3.421875 4.285156-3.222656 7.019531l2.15625 29.34375-47.316406 20.695312-20.308594-21.171875c-1.859375-1.9375-4.566406-2.8125-7.210938-2.332031-18.878906 3.457031-38.179687 3.953125-57.207031 1.476563-2.667969-.347657-5.332031.671874-7.089843 2.707031l-18.960938 21.972656-48.097656-18.570313.863281-29.320312c.078125-2.757812-1.265625-5.363281-3.558594-6.890625-15.914062-10.601563-29.863281-23.886719-41.230469-39.265625-1.628906-2.207031-4.277343-3.421875-7.015624-3.21875l-29.332032 2.160156-20.703125-47.316406 21.171875-20.304688c1.9375-1.863281 2.8125-4.570312 2.332032-7.214843-3.457032-18.875-3.953126-38.175781-1.476563-57.207031.347656-2.667969-.671875-5.332032-2.707031-7.089844l-21.976563-18.957032 18.566407-48.113281 29.320312.863281c2.757812.085938 5.363281-1.257812 6.890625-3.558593 10.601563-15.90625 23.886719-29.855469 39.261719-41.214844 2.207031-1.632813 3.425781-4.28125 3.222656-7.019531l-2.152344-29.339844 47.316406-20.695312 20.304688 21.167968c1.859375 1.941406 4.566406 2.816406 7.210938 2.332032 18.882812-3.453126 38.191406-3.949219 57.226562-1.476563 2.667969.351563 5.332031-.667969 7.089844-2.707031l18.945312-21.972656 48.113282 18.570312-.863282 29.320312c-.082031 2.757813 1.261719 5.359376 3.558594 6.890626 15.910156 10.601562 29.863281 23.882812 41.226562 39.261718 1.632813 2.203125 4.277344 3.421875 7.015626 3.21875l29.332031-2.152344 20.703125 47.316407-21.179688 20.300781c-1.941406 1.859375-2.816406 4.566406-2.332031 7.210938 3.453125 18.878906 3.953125 38.179687 1.472656 57.210937-.34375 2.667969.671875 5.332031 2.710938 7.089844l21.972656 18.957031zm0 0" fill="#2ca1ff" data-original="#083863" style="" class=""/><path d="m220.425781 125.0625c-28.0625 0-50.8125 22.746094-50.8125 50.808594s22.75 50.808594 50.8125 50.808594c28.058594 0 50.808594-22.746094 50.808594-50.808594-.03125-28.046875-22.761719-50.777344-50.808594-50.808594zm0 85.617188c-19.226562 0-34.8125-15.582032-34.8125-34.808594 0-19.226563 15.585938-34.808594 34.8125-34.808594 19.222657 0 34.808594 15.582031 34.808594 34.808594-.023437 19.214844-15.59375 34.789062-34.808594 34.808594zm0 0" fill="#2ca1ff" data-original="#083863" style="" class=""/></g></g></svg>
